<svg width="200" height="200" viewBox="0 0 200 200" fill="none" xmlns="http://www.w3.org/2000/svg">
  <defs>
    <linearGradient id="copperGrad" x1="50" y1="150" x2="150" y2="50" gradientUnits="userSpaceOnUse">
      <stop offset="0%" stop-color="#92400E"/>
      <stop offset="50%" stop-color="#F59E0B"/>
      <stop offset="100%" stop-color="#FEF3C7"/>
    </linearGradient>
    <linearGradient id="liquidGold" x1="100" y1="100" x2="100" y2="180" gradientUnits="userSpaceOnUse">
      <stop offset="0%" stop-color="#FBBF24" stop-opacity="0.1"/>
      <stop offset="100%" stop-color="#F59E0B" stop-opacity="0.6"/>
    </linearGradient>
  </defs>
  <rect width="200" height="200" rx="44" fill="#050505"/>
  <path d="M60 140 C60 110, 80 100, 90 95 V 70" stroke="url(#copperGrad)" stroke-width="4" stroke-linecap="round" fill="none"/>
  <path d="M110 70 V 95 C120 100, 140 110, 140 140 C140 165, 122 185, 100 185 C78 185, 60 165, 60 140 Z" stroke="url(#copperGrad)" stroke-width="4" stroke-linecap="round" fill="url(#liquidGold)"/>
  <path d="M90 70 C90 60, 90 50, 100 40 C110 30, 130 30, 145 45 L 155 55" stroke="url(#copperGrad)" stroke-width="4" stroke-linecap="round" fill="none"/>
  <path d="M155 65 C155 65, 150 72, 150 76 A 5 5 0 0 0 160 76 C160 72, 155 65, 155 65 Z" fill="#FCD34D"/>
  <path d="M75 130 Q 80 110, 95 105" stroke="#FEF3C7" stroke-width="2" stroke-opacity="0.4" stroke-linecap="round"/>
</svg>
